# Wavefront OBJ file automatically generated by Tiled2Unity

# Vertices (Count = 308)
v 0 -64 0
v -64 -64 0
v -64 0 0
v 0 0 0
v -128 -64 0
v -128 0 0
v -192 -64 0
v -192 0 0
v -256 -64 0
v -256 0 0
v -320 -64 0
v -320 0 0
v -384 -64 0
v -384 0 0
v -448 -64 0
v -448 0 0
v -512 -64 0
v -512 0 0
v -4608 -64 0
v -4672 -64 0
v -4672 0 0
v -4608 0 0
v -4736 -64 0
v -4736 0 0
v -4800 -64 0
v -4800 0 0
v -4864 -64 0
v -4864 0 0
v -4928 -64 0
v -4928 0 0
v -4992 -64 0
v -4992 0 0
v -5056 -64 0
v -5056 0 0
v -5120 -64 0
v -5120 0 0
v -5184 -64 0
v -5184 0 0
v -5248 -64 0
v -5248 0 0
v 0 -128 0
v -64 -128 0
v -128 -128 0
v -192 -128 0
v -256 -128 0
v -320 -128 0
v -384 -128 0
v -448 -128 0
v -512 -128 0
v -4608 -128 0
v -4672 -128 0
v -4736 -128 0
v -4800 -128 0
v -4864 -128 0
v -4928 -128 0
v -4992 -128 0
v -5056 -128 0
v -5120 -128 0
v -5184 -128 0
v -5248 -128 0
v 0 -192 0
v -64 -192 0
v -128 -192 0
v -192 -192 0
v -256 -192 0
v -320 -192 0
v -384 -192 0
v -448 -192 0
v -512 -192 0
v -4608 -192 0
v -4672 -192 0
v -4736 -192 0
v -4800 -192 0
v -4864 -192 0
v -4928 -192 0
v -4992 -192 0
v -5056 -192 0
v -5120 -192 0
v -5184 -192 0
v -5248 -192 0
v 0 -256 0
v -64 -256 0
v -128 -256 0
v -192 -256 0
v -256 -256 0
v -320 -256 0
v -384 -256 0
v -448 -256 0
v -512 -256 0
v -4608 -256 0
v -4672 -256 0
v -4736 -256 0
v -4800 -256 0
v -4864 -256 0
v -4928 -256 0
v -4992 -256 0
v -5056 -256 0
v -5120 -256 0
v -5184 -256 0
v -5248 -256 0
v 0 -320 0
v -64 -320 0
v -128 -320 0
v -192 -320 0
v -256 -320 0
v -320 -320 0
v -384 -320 0
v -448 -320 0
v -512 -320 0
v -4608 -320 0
v -4672 -320 0
v -4736 -320 0
v -4800 -320 0
v -4864 -320 0
v -4928 -320 0
v -4992 -320 0
v -5056 -320 0
v -5120 -320 0
v -5184 -320 0
v -5248 -320 0
v -4608 -384 0
v -4672 -384 0
v -4736 -384 0
v -4800 -384 0
v -4864 -384 0
v -4928 -384 0
v -4992 -384 0
v -5056 -384 0
v -5120 -384 0
v -5184 -384 0
v -5248 -384 0
v 0 -640 0
v -64 -640 0
v -64 -576 0
v 0 -576 0
v -128 -640 0
v -128 -576 0
v -192 -640 0
v -192 -576 0
v -256 -640 0
v -256 -576 0
v -320 -640 0
v -320 -576 0
v -384 -640 0
v -384 -576 0
v -448 -640 0
v -448 -576 0
v -512 -640 0
v -512 -576 0
v -576 -640 0
v -576 -576 0
v -640 -640 0
v -640 -576 0
v -4544 -640 0
v -4608 -640 0
v -4608 -576 0
v -4544 -576 0
v -4672 -640 0
v -4672 -576 0
v -4736 -640 0
v -4736 -576 0
v -4800 -640 0
v -4800 -576 0
v -4864 -640 0
v -4864 -576 0
v -4928 -640 0
v -4928 -576 0
v -4992 -640 0
v -4992 -576 0
v -5056 -640 0
v -5056 -576 0
v -5120 -640 0
v -5120 -576 0
v -5184 -640 0
v -5184 -576 0
v -5248 -640 0
v -5248 -576 0
v 0 -704 0
v -64 -704 0
v -128 -704 0
v -192 -704 0
v -256 -704 0
v -320 -704 0
v -384 -704 0
v -448 -704 0
v -512 -704 0
v -576 -704 0
v -640 -704 0
v -4544 -704 0
v -4608 -704 0
v -4672 -704 0
v -4736 -704 0
v -4800 -704 0
v -4864 -704 0
v -4928 -704 0
v -4992 -704 0
v -5056 -704 0
v -5120 -704 0
v -5184 -704 0
v -5248 -704 0
v 0 -768 0
v -64 -768 0
v -128 -768 0
v -192 -768 0
v -256 -768 0
v -320 -768 0
v -384 -768 0
v -448 -768 0
v -512 -768 0
v -4544 -768 0
v -4608 -768 0
v -4672 -768 0
v -4736 -768 0
v -4800 -768 0
v -4864 -768 0
v -4928 -768 0
v -4992 -768 0
v -5056 -768 0
v -5120 -768 0
v -5184 -768 0
v -5248 -768 0
v 0 -832 0
v -64 -832 0
v -128 -832 0
v -192 -832 0
v -256 -832 0
v -320 -832 0
v -1024 -832 0
v -1088 -832 0
v -1088 -768 0
v -1024 -768 0
v -1152 -832 0
v -1152 -768 0
v -1216 -832 0
v -1216 -768 0
v -4736 -832 0
v -4800 -832 0
v -4864 -832 0
v -4928 -832 0
v -4992 -832 0
v -5056 -832 0
v -5120 -832 0
v -5184 -832 0
v -5248 -832 0
v 0 -896 0
v -64 -896 0
v -128 -896 0
v -4928 -896 0
v -4992 -896 0
v -5056 -896 0
v -5120 -896 0
v -5184 -896 0
v -5248 -896 0
v 0 -960 0
v -64 -960 0
v -128 -960 0
v -5184 -960 0
v -5248 -960 0
v 0 -1024 0
v -64 -1024 0
v -128 -1024 0
v -1664 -1024 0
v -1728 -1024 0
v -1728 -960 0
v -1664 -960 0
v -1792 -1024 0
v -1792 -960 0
v -1856 -1024 0
v -1856 -960 0
v -1920 -1024 0
v -1920 -960 0
v -1984 -1024 0
v -1984 -960 0
v -2048 -1024 0
v -2048 -960 0
v -1664 -1088 0
v -1728 -1088 0
v -1792 -1088 0
v -1856 -1088 0
v -1920 -1088 0
v -1984 -1088 0
v -2048 -1088 0
v -1216 -1280 0
v -1280 -1280 0
v -1280 -1216 0
v -1216 -1216 0
v -1792 -1664 0
v -1856 -1664 0
v -1856 -1600 0
v -1792 -1600 0
v -1920 -1664 0
v -1920 -1600 0
v -1984 -1664 0
v -1984 -1600 0
v -2048 -1664 0
v -2048 -1600 0
v -2432 -1664 0
v -2496 -1664 0
v -2496 -1600 0
v -2432 -1600 0
v -2560 -1664 0
v -2560 -1600 0
v -2624 -1664 0
v -2624 -1600 0
v -3264 -1920 0
v -3328 -1920 0
v -3328 -1856 0
v -3264 -1856 0

# Texture cooridinates (Count = 32)
vt 0.2500305 0.2500305
vt 0.4999695 0.2500305
vt 0.4999695 0.4999695
vt 0.2500305 0.4999695
vt 0.7500305 0.2500305
vt 0.9999695 0.2500305
vt 0.9999695 0.4999695
vt 0.7500305 0.4999695
vt 3.051758E-05 0.2500305
vt 0.2499695 0.2500305
vt 0.2499695 0.4999695
vt 3.051758E-05 0.4999695
vt 0.5000305 0.2500305
vt 0.7499695 0.2500305
vt 0.7499695 0.4999695
vt 0.5000305 0.4999695
vt 0.2500305 0.5000305
vt 0.4999695 0.5000305
vt 0.4999695 0.7499695
vt 0.2500305 0.7499695
vt 0.7500305 0.5000305
vt 0.9999695 0.5000305
vt 0.9999695 0.7499695
vt 0.7500305 0.7499695
vt 3.051758E-05 0.5000305
vt 0.2499695 0.5000305
vt 0.2499695 0.7499695
vt 3.051758E-05 0.7499695
vt 0.5000305 0.5000305
vt 0.7499695 0.5000305
vt 0.7499695 0.7499695
vt 0.5000305 0.7499695

# Normal
vn 0 0 -1

# Groups (Count = 1)

g mesh_0001
f 1/1/1 2/2/1 3/3/1 4/4/1
f 2/1/1 5/2/1 6/3/1 3/4/1
f 5/1/1 7/2/1 8/3/1 6/4/1
f 7/1/1 9/2/1 10/3/1 8/4/1
f 9/1/1 11/2/1 12/3/1 10/4/1
f 11/1/1 13/2/1 14/3/1 12/4/1
f 13/1/1 15/2/1 16/3/1 14/4/1
f 15/5/1 17/6/1 18/7/1 16/8/1
f 19/9/1 20/10/1 21/11/1 22/12/1
f 20/1/1 23/2/1 24/3/1 21/4/1
f 23/13/1 25/14/1 26/15/1 24/16/1
f 25/1/1 27/2/1 28/3/1 26/4/1
f 27/1/1 29/2/1 30/3/1 28/4/1
f 29/1/1 31/2/1 32/3/1 30/4/1
f 31/1/1 33/2/1 34/3/1 32/4/1
f 33/1/1 35/2/1 36/3/1 34/4/1
f 35/1/1 37/2/1 38/3/1 36/4/1
f 37/1/1 39/2/1 40/3/1 38/4/1
f 41/1/1 42/2/1 2/3/1 1/4/1
f 42/1/1 43/2/1 5/3/1 2/4/1
f 43/1/1 44/2/1 7/3/1 5/4/1
f 44/1/1 45/2/1 9/3/1 7/4/1
f 45/1/1 46/2/1 11/3/1 9/4/1
f 46/1/1 47/2/1 13/3/1 11/4/1
f 47/1/1 48/2/1 15/3/1 13/4/1
f 48/5/1 49/6/1 17/7/1 15/8/1
f 50/9/1 51/10/1 20/11/1 19/12/1
f 51/1/1 52/2/1 23/3/1 20/4/1
f 52/1/1 53/2/1 25/3/1 23/4/1
f 53/1/1 54/2/1 27/3/1 25/4/1
f 54/13/1 55/14/1 29/15/1 27/16/1
f 55/1/1 56/2/1 31/3/1 29/4/1
f 56/1/1 57/2/1 33/3/1 31/4/1
f 57/13/1 58/14/1 35/15/1 33/16/1
f 58/1/1 59/2/1 37/3/1 35/4/1
f 59/1/1 60/2/1 39/3/1 37/4/1
f 61/1/1 62/2/1 42/3/1 41/4/1
f 62/1/1 63/2/1 43/3/1 42/4/1
f 63/1/1 64/2/1 44/3/1 43/4/1
f 64/1/1 65/2/1 45/3/1 44/4/1
f 65/1/1 66/2/1 46/3/1 45/4/1
f 66/1/1 67/2/1 47/3/1 46/4/1
f 67/1/1 68/2/1 48/3/1 47/4/1
f 68/5/1 69/6/1 49/7/1 48/8/1
f 70/9/1 71/10/1 51/11/1 50/12/1
f 71/1/1 72/2/1 52/3/1 51/4/1
f 72/1/1 73/2/1 53/3/1 52/4/1
f 73/1/1 74/2/1 54/3/1 53/4/1
f 74/1/1 75/2/1 55/3/1 54/4/1
f 75/1/1 76/2/1 56/3/1 55/4/1
f 76/1/1 77/2/1 57/3/1 56/4/1
f 77/13/1 78/14/1 58/15/1 57/16/1
f 78/1/1 79/2/1 59/3/1 58/4/1
f 79/1/1 80/2/1 60/3/1 59/4/1
f 81/1/1 82/2/1 62/3/1 61/4/1
f 82/1/1 83/2/1 63/3/1 62/4/1
f 83/1/1 84/2/1 64/3/1 63/4/1
f 84/1/1 85/2/1 65/3/1 64/4/1
f 85/1/1 86/2/1 66/3/1 65/4/1
f 86/1/1 87/2/1 67/3/1 66/4/1
f 87/1/1 88/2/1 68/3/1 67/4/1
f 88/5/1 89/6/1 69/7/1 68/8/1
f 90/9/1 91/10/1 71/11/1 70/12/1
f 91/1/1 92/2/1 72/3/1 71/4/1
f 92/1/1 93/2/1 73/3/1 72/4/1
f 93/13/1 94/14/1 74/15/1 73/16/1
f 94/1/1 95/2/1 75/3/1 74/4/1
f 95/1/1 96/2/1 76/3/1 75/4/1
f 96/1/1 97/2/1 77/3/1 76/4/1
f 97/1/1 98/2/1 78/3/1 77/4/1
f 98/1/1 99/2/1 79/3/1 78/4/1
f 99/1/1 100/2/1 80/3/1 79/4/1
f 101/1/1 102/2/1 82/3/1 81/4/1
f 102/1/1 103/2/1 83/3/1 82/4/1
f 103/1/1 104/2/1 84/3/1 83/4/1
f 104/1/1 105/2/1 85/3/1 84/4/1
f 105/1/1 106/2/1 86/3/1 85/4/1
f 106/1/1 107/2/1 87/3/1 86/4/1
f 107/1/1 108/2/1 88/3/1 87/4/1
f 108/5/1 109/6/1 89/7/1 88/8/1
f 110/9/1 111/10/1 91/11/1 90/12/1
f 111/1/1 112/2/1 92/3/1 91/4/1
f 112/13/1 113/14/1 93/15/1 92/16/1
f 113/1/1 114/2/1 94/3/1 93/4/1
f 114/1/1 115/2/1 95/3/1 94/4/1
f 115/1/1 116/2/1 96/3/1 95/4/1
f 116/1/1 117/2/1 97/3/1 96/4/1
f 117/1/1 118/2/1 98/3/1 97/4/1
f 118/1/1 119/2/1 99/3/1 98/4/1
f 119/1/1 120/2/1 100/3/1 99/4/1
f 121/9/1 122/10/1 111/11/1 110/12/1
f 122/1/1 123/2/1 112/3/1 111/4/1
f 123/13/1 124/14/1 113/15/1 112/16/1
f 124/1/1 125/2/1 114/3/1 113/4/1
f 125/1/1 126/2/1 115/3/1 114/4/1
f 126/13/1 127/14/1 116/15/1 115/16/1
f 127/1/1 128/2/1 117/3/1 116/4/1
f 128/1/1 129/2/1 118/3/1 117/4/1
f 129/13/1 130/14/1 119/15/1 118/16/1
f 130/1/1 131/2/1 120/3/1 119/4/1
f 132/17/1 133/18/1 134/19/1 135/20/1
f 133/17/1 136/18/1 137/19/1 134/20/1
f 136/17/1 138/18/1 139/19/1 137/20/1
f 138/17/1 140/18/1 141/19/1 139/20/1
f 140/17/1 142/18/1 143/19/1 141/20/1
f 142/17/1 144/18/1 145/19/1 143/20/1
f 144/17/1 146/18/1 147/19/1 145/20/1
f 146/17/1 148/18/1 149/19/1 147/20/1
f 148/17/1 150/18/1 151/19/1 149/20/1
f 150/21/1 152/22/1 153/23/1 151/24/1
f 154/25/1 155/26/1 156/27/1 157/28/1
f 155/17/1 158/18/1 159/19/1 156/20/1
f 158/17/1 160/18/1 161/19/1 159/20/1
f 160/17/1 162/18/1 163/19/1 161/20/1
f 162/17/1 164/18/1 165/19/1 163/20/1
f 164/17/1 166/18/1 167/19/1 165/20/1
f 166/17/1 168/18/1 169/19/1 167/20/1
f 168/17/1 170/18/1 171/19/1 169/20/1
f 170/17/1 172/18/1 173/19/1 171/20/1
f 172/17/1 174/18/1 175/19/1 173/20/1
f 174/17/1 176/18/1 177/19/1 175/20/1
f 178/1/1 179/2/1 133/3/1 132/4/1
f 179/1/1 180/2/1 136/3/1 133/4/1
f 180/1/1 181/2/1 138/3/1 136/4/1
f 181/1/1 182/2/1 140/3/1 138/4/1
f 182/1/1 183/2/1 142/3/1 140/4/1
f 183/1/1 184/2/1 144/3/1 142/4/1
f 184/1/1 185/2/1 146/3/1 144/4/1
f 185/1/1 186/2/1 148/3/1 146/4/1
f 186/1/1 187/2/1 150/3/1 148/4/1
f 187/5/1 188/6/1 152/7/1 150/8/1
f 189/9/1 190/10/1 155/11/1 154/12/1
f 190/13/1 191/14/1 158/15/1 155/16/1
f 191/1/1 192/2/1 160/3/1 158/4/1
f 192/1/1 193/2/1 162/3/1 160/4/1
f 193/13/1 194/14/1 164/15/1 162/16/1
f 194/1/1 195/2/1 166/3/1 164/4/1
f 195/1/1 196/2/1 168/3/1 166/4/1
f 196/1/1 197/2/1 170/3/1 168/4/1
f 197/1/1 198/2/1 172/3/1 170/4/1
f 198/13/1 199/14/1 174/15/1 172/16/1
f 199/1/1 200/2/1 176/3/1 174/4/1
f 201/1/1 202/2/1 179/3/1 178/4/1
f 202/1/1 203/2/1 180/3/1 179/4/1
f 203/1/1 204/2/1 181/3/1 180/4/1
f 204/1/1 205/2/1 182/3/1 181/4/1
f 205/1/1 206/2/1 183/3/1 182/4/1
f 206/1/1 207/2/1 184/3/1 183/4/1
f 207/1/1 208/2/1 185/3/1 184/4/1
f 208/5/1 209/6/1 186/7/1 185/8/1
f 210/9/1 211/10/1 190/11/1 189/12/1
f 211/1/1 212/2/1 191/3/1 190/4/1
f 212/13/1 213/14/1 192/15/1 191/16/1
f 213/1/1 214/2/1 193/3/1 192/4/1
f 214/1/1 215/2/1 194/3/1 193/4/1
f 215/1/1 216/2/1 195/3/1 194/4/1
f 216/1/1 217/2/1 196/3/1 195/4/1
f 217/1/1 218/2/1 197/3/1 196/4/1
f 218/13/1 219/14/1 198/15/1 197/16/1
f 219/1/1 220/2/1 199/3/1 198/4/1
f 220/1/1 221/2/1 200/3/1 199/4/1
f 222/1/1 223/2/1 202/3/1 201/4/1
f 223/1/1 224/2/1 203/3/1 202/4/1
f 224/1/1 225/2/1 204/3/1 203/4/1
f 225/1/1 226/2/1 205/3/1 204/4/1
f 226/5/1 227/6/1 206/7/1 205/8/1
f 228/25/1 229/26/1 230/27/1 231/28/1
f 229/17/1 232/18/1 233/19/1 230/20/1
f 232/21/1 234/22/1 235/23/1 233/24/1
f 236/9/1 237/10/1 214/11/1 213/12/1
f 237/1/1 238/2/1 215/3/1 214/4/1
f 238/13/1 239/14/1 216/15/1 215/16/1
f 239/1/1 240/2/1 217/3/1 216/4/1
f 240/1/1 241/2/1 218/3/1 217/4/1
f 241/1/1 242/2/1 219/3/1 218/4/1
f 242/1/1 243/2/1 220/3/1 219/4/1
f 243/1/1 244/2/1 221/3/1 220/4/1
f 245/1/1 246/2/1 223/3/1 222/4/1
f 246/5/1 247/6/1 224/7/1 223/8/1
f 248/9/1 249/10/1 240/11/1 239/12/1
f 249/1/1 250/2/1 241/3/1 240/4/1
f 250/13/1 251/14/1 242/15/1 241/16/1
f 251/13/1 252/14/1 243/15/1 242/16/1
f 252/1/1 253/2/1 244/3/1 243/4/1
f 254/1/1 255/2/1 246/3/1 245/4/1
f 255/5/1 256/6/1 247/7/1 246/8/1
f 257/9/1 258/10/1 253/11/1 252/12/1
f 259/1/1 260/2/1 255/3/1 254/4/1
f 260/5/1 261/6/1 256/7/1 255/8/1
f 262/25/1 263/26/1 264/27/1 265/28/1
f 263/17/1 266/18/1 267/19/1 264/20/1
f 266/17/1 268/18/1 269/19/1 267/20/1
f 268/17/1 270/18/1 271/19/1 269/20/1
f 270/17/1 272/18/1 273/19/1 271/20/1
f 272/21/1 274/22/1 275/23/1 273/24/1
f 276/9/1 277/10/1 263/11/1 262/12/1
f 277/1/1 278/2/1 266/3/1 263/4/1
f 278/1/1 279/2/1 268/3/1 266/4/1
f 279/1/1 280/2/1 270/3/1 268/4/1
f 280/1/1 281/2/1 272/3/1 270/4/1
f 281/5/1 282/6/1 274/7/1 272/8/1
f 283/17/1 284/18/1 285/19/1 286/20/1
f 287/25/1 288/26/1 289/27/1 290/28/1
f 288/29/1 291/30/1 292/31/1 289/32/1
f 291/29/1 293/30/1 294/31/1 292/32/1
f 293/21/1 295/22/1 296/23/1 294/24/1
f 297/25/1 298/26/1 299/27/1 300/28/1
f 298/17/1 301/18/1 302/19/1 299/20/1
f 301/21/1 303/22/1 304/23/1 302/24/1
f 305/17/1 306/18/1 307/19/1 308/20/1

