# Wavefront OBJ file automatically generated by Tiled2Unity

# Vertices (Count = 480)
v 0 -64 0
v -64 -64 0
v -64 0 0
v 0 0 0
v -128 -64 0
v -128 0 0
v -192 -64 0
v -192 0 0
v -256 -64 0
v -256 0 0
v -320 -64 0
v -320 0 0
v -384 -64 0
v -384 0 0
v -448 -64 0
v -448 0 0
v -512 -64 0
v -512 0 0
v -576 -64 0
v -576 0 0
v -640 -64 0
v -640 0 0
v -704 -64 0
v -704 0 0
v -768 -64 0
v -768 0 0
v -832 -64 0
v -832 0 0
v -896 -64 0
v -896 0 0
v -960 -64 0
v -960 0 0
v -1024 -64 0
v -1024 0 0
v -1088 -64 0
v -1088 0 0
v -1152 -64 0
v -1152 0 0
v -1216 -64 0
v -1216 0 0
v 0 -128 0
v -64 -128 0
v -128 -128 0
v -192 -128 0
v -256 -128 0
v -320 -128 0
v -384 -128 0
v -448 -128 0
v -512 -128 0
v -576 -128 0
v -640 -128 0
v -704 -128 0
v -768 -128 0
v -832 -128 0
v -896 -128 0
v -960 -128 0
v -1024 -128 0
v -1088 -128 0
v -1152 -128 0
v -1216 -128 0
v 0 -192 0
v -64 -192 0
v -128 -192 0
v -192 -192 0
v -256 -192 0
v -320 -192 0
v -384 -192 0
v -448 -192 0
v -512 -192 0
v -576 -192 0
v -640 -192 0
v -704 -192 0
v -768 -192 0
v -832 -192 0
v -896 -192 0
v -960 -192 0
v -1024 -192 0
v -1088 -192 0
v -1152 -192 0
v -1216 -192 0
v 0 -512 0
v -64 -512 0
v -64 -448 0
v 0 -448 0
v -128 -512 0
v -128 -448 0
v -192 -512 0
v -192 -448 0
v -256 -512 0
v -256 -448 0
v -320 -512 0
v -320 -448 0
v -384 -512 0
v -384 -448 0
v -704 -512 0
v -768 -512 0
v -768 -448 0
v -704 -448 0
v -832 -512 0
v -832 -448 0
v -896 -512 0
v -896 -448 0
v -960 -512 0
v -960 -448 0
v -1024 -512 0
v -1024 -448 0
v -1088 -512 0
v -1088 -448 0
v -1152 -512 0
v -1152 -448 0
v -1216 -512 0
v -1216 -448 0
v 0 -576 0
v -64 -576 0
v -128 -576 0
v -192 -576 0
v -256 -576 0
v -320 -576 0
v -384 -576 0
v -704 -576 0
v -768 -576 0
v -832 -576 0
v -896 -576 0
v -960 -576 0
v -1024 -576 0
v -1088 -576 0
v -1152 -576 0
v -1216 -576 0
v 0 -640 0
v -64 -640 0
v -128 -640 0
v -192 -640 0
v -256 -640 0
v -320 -640 0
v -384 -640 0
v -704 -640 0
v -768 -640 0
v -832 -640 0
v -896 -640 0
v -960 -640 0
v -1024 -640 0
v -1088 -640 0
v -1152 -640 0
v -1216 -640 0
v 0 -704 0
v -64 -704 0
v -128 -704 0
v -192 -704 0
v -256 -704 0
v -320 -704 0
v -384 -704 0
v -704 -704 0
v -768 -704 0
v -832 -704 0
v -896 -704 0
v -960 -704 0
v -1024 -704 0
v -1088 -704 0
v -1152 -704 0
v -1216 -704 0
v 0 -768 0
v -64 -768 0
v -128 -768 0
v -192 -768 0
v -256 -768 0
v -320 -768 0
v -384 -768 0
v -704 -768 0
v -768 -768 0
v -832 -768 0
v -896 -768 0
v -960 -768 0
v -1024 -768 0
v -1088 -768 0
v -1152 -768 0
v -1216 -768 0
v 0 -832 0
v -64 -832 0
v -128 -832 0
v -192 -832 0
v -256 -832 0
v -320 -832 0
v -384 -832 0
v -704 -832 0
v -768 -832 0
v -832 -832 0
v -896 -832 0
v -960 -832 0
v -1024 -832 0
v -1088 -832 0
v -1152 -832 0
v -1216 -832 0
v 0 -896 0
v -64 -896 0
v -128 -896 0
v -192 -896 0
v -256 -896 0
v -320 -896 0
v -384 -896 0
v -704 -896 0
v -768 -896 0
v -832 -896 0
v -896 -896 0
v -960 -896 0
v -1024 -896 0
v -1088 -896 0
v -1152 -896 0
v -1216 -896 0
v 0 -960 0
v -64 -960 0
v -128 -960 0
v -192 -960 0
v -256 -960 0
v -320 -960 0
v -384 -960 0
v -704 -960 0
v -768 -960 0
v -832 -960 0
v -896 -960 0
v -960 -960 0
v -1024 -960 0
v -1088 -960 0
v -1152 -960 0
v -1216 -960 0
v 0 -1024 0
v -64 -1024 0
v -128 -1024 0
v -192 -1024 0
v -256 -1024 0
v -320 -1024 0
v -384 -1024 0
v -704 -1024 0
v -768 -1024 0
v -832 -1024 0
v -896 -1024 0
v -960 -1024 0
v -1024 -1024 0
v -1088 -1024 0
v -1152 -1024 0
v -1216 -1024 0
v 0 -1088 0
v -64 -1088 0
v -128 -1088 0
v -192 -1088 0
v -256 -1088 0
v -320 -1088 0
v -384 -1088 0
v -704 -1088 0
v -768 -1088 0
v -832 -1088 0
v -896 -1088 0
v -960 -1088 0
v -1024 -1088 0
v -1088 -1088 0
v -1152 -1088 0
v -1216 -1088 0
v 0 -1152 0
v -64 -1152 0
v -128 -1152 0
v -192 -1152 0
v -256 -1152 0
v -320 -1152 0
v -384 -1152 0
v -704 -1152 0
v -768 -1152 0
v -832 -1152 0
v -896 -1152 0
v -960 -1152 0
v -1024 -1152 0
v -1088 -1152 0
v -1152 -1152 0
v -1216 -1152 0
v 0 -1216 0
v -64 -1216 0
v -128 -1216 0
v -192 -1216 0
v -256 -1216 0
v -320 -1216 0
v -384 -1216 0
v -704 -1216 0
v -768 -1216 0
v -832 -1216 0
v -896 -1216 0
v -960 -1216 0
v -1024 -1216 0
v -1088 -1216 0
v -1152 -1216 0
v -1216 -1216 0
v 0 -1280 0
v -64 -1280 0
v -128 -1280 0
v -192 -1280 0
v -256 -1280 0
v -320 -1280 0
v -384 -1280 0
v -704 -1280 0
v -768 -1280 0
v -832 -1280 0
v -896 -1280 0
v -960 -1280 0
v -1024 -1280 0
v -1088 -1280 0
v -1152 -1280 0
v -1216 -1280 0
v 0 -1344 0
v -64 -1344 0
v -128 -1344 0
v -192 -1344 0
v -256 -1344 0
v -320 -1344 0
v -384 -1344 0
v -704 -1344 0
v -768 -1344 0
v -832 -1344 0
v -896 -1344 0
v -960 -1344 0
v -1024 -1344 0
v -1088 -1344 0
v -1152 -1344 0
v -1216 -1344 0
v 0 -1408 0
v -64 -1408 0
v -128 -1408 0
v -192 -1408 0
v -256 -1408 0
v -320 -1408 0
v -384 -1408 0
v -704 -1408 0
v -768 -1408 0
v -832 -1408 0
v -896 -1408 0
v -960 -1408 0
v -1024 -1408 0
v -1088 -1408 0
v -1152 -1408 0
v -1216 -1408 0
v 0 -1472 0
v -64 -1472 0
v -128 -1472 0
v -192 -1472 0
v -256 -1472 0
v -320 -1472 0
v -384 -1472 0
v -704 -1472 0
v -768 -1472 0
v -832 -1472 0
v -896 -1472 0
v -960 -1472 0
v -1024 -1472 0
v -1088 -1472 0
v -1152 -1472 0
v -1216 -1472 0
v 0 -1536 0
v -64 -1536 0
v -128 -1536 0
v -192 -1536 0
v -256 -1536 0
v -320 -1536 0
v -384 -1536 0
v -704 -1536 0
v -768 -1536 0
v -832 -1536 0
v -896 -1536 0
v -960 -1536 0
v -1024 -1536 0
v -1088 -1536 0
v -1152 -1536 0
v -1216 -1536 0
v 0 -1600 0
v -64 -1600 0
v -128 -1600 0
v -192 -1600 0
v -256 -1600 0
v -320 -1600 0
v -384 -1600 0
v -704 -1600 0
v -768 -1600 0
v -832 -1600 0
v -896 -1600 0
v -960 -1600 0
v -1024 -1600 0
v -1088 -1600 0
v -1152 -1600 0
v -1216 -1600 0
v 0 -1664 0
v -64 -1664 0
v -128 -1664 0
v -192 -1664 0
v -256 -1664 0
v -320 -1664 0
v -384 -1664 0
v -704 -1664 0
v -768 -1664 0
v -832 -1664 0
v -896 -1664 0
v -960 -1664 0
v -1024 -1664 0
v -1088 -1664 0
v -1152 -1664 0
v -1216 -1664 0
v 0 -1728 0
v -64 -1728 0
v -128 -1728 0
v -192 -1728 0
v -256 -1728 0
v -320 -1728 0
v -384 -1728 0
v -704 -1728 0
v -768 -1728 0
v -832 -1728 0
v -896 -1728 0
v -960 -1728 0
v -1024 -1728 0
v -1088 -1728 0
v -1152 -1728 0
v -1216 -1728 0
v 0 -1792 0
v -64 -1792 0
v -128 -1792 0
v -192 -1792 0
v -256 -1792 0
v -320 -1792 0
v -384 -1792 0
v -448 -1792 0
v -448 -1728 0
v -512 -1792 0
v -512 -1728 0
v -576 -1792 0
v -576 -1728 0
v -640 -1792 0
v -640 -1728 0
v -704 -1792 0
v -768 -1792 0
v -832 -1792 0
v -896 -1792 0
v -960 -1792 0
v -1024 -1792 0
v -1088 -1792 0
v -1152 -1792 0
v -1216 -1792 0
v 0 -1856 0
v -64 -1856 0
v -128 -1856 0
v -192 -1856 0
v -256 -1856 0
v -320 -1856 0
v -384 -1856 0
v -448 -1856 0
v -512 -1856 0
v -576 -1856 0
v -640 -1856 0
v -704 -1856 0
v -768 -1856 0
v -832 -1856 0
v -896 -1856 0
v -960 -1856 0
v -1024 -1856 0
v -1088 -1856 0
v -1152 -1856 0
v -1216 -1856 0
v 0 -1920 0
v -64 -1920 0
v -128 -1920 0
v -192 -1920 0
v -256 -1920 0
v -320 -1920 0
v -384 -1920 0
v -448 -1920 0
v -512 -1920 0
v -576 -1920 0
v -640 -1920 0
v -704 -1920 0
v -768 -1920 0
v -832 -1920 0
v -896 -1920 0
v -960 -1920 0
v -1024 -1920 0
v -1088 -1920 0
v -1152 -1920 0
v -1216 -1920 0

# Texture cooridinates (Count = 40)
vt 0.2500305 0.2500305
vt 0.4999695 0.2500305
vt 0.4999695 0.4999695
vt 0.2500305 0.4999695
vt 0.5000305 0.2500305
vt 0.7499695 0.2500305
vt 0.7499695 0.4999695
vt 0.5000305 0.4999695
vt 0.2500305 0.5000305
vt 0.4999695 0.5000305
vt 0.4999695 0.7499695
vt 0.2500305 0.7499695
vt 0.7500305 0.5000305
vt 0.9999695 0.5000305
vt 0.9999695 0.7499695
vt 0.7500305 0.7499695
vt 3.051758E-05 0.5000305
vt 0.2499695 0.5000305
vt 0.2499695 0.7499695
vt 3.051758E-05 0.7499695
vt 0.5000305 0.5000305
vt 0.7499695 0.5000305
vt 0.7499695 0.7499695
vt 0.5000305 0.7499695
vt 0.7500305 0.2500305
vt 0.9999695 0.2500305
vt 0.9999695 0.4999695
vt 0.7500305 0.4999695
vt 3.051758E-05 0.2500305
vt 0.2499695 0.2500305
vt 0.2499695 0.4999695
vt 3.051758E-05 0.4999695
vt 0.7500305 3.051758E-05
vt 0.9999695 3.051758E-05
vt 0.9999695 0.2499695
vt 0.7500305 0.2499695
vt 3.051758E-05 3.051758E-05
vt 0.2499695 3.051758E-05
vt 0.2499695 0.2499695
vt 3.051758E-05 0.2499695

# Normal
vn 0 0 -1

# Groups (Count = 1)

g mesh_0001
f 1/1/1 2/2/1 3/3/1 4/4/1
f 2/1/1 5/2/1 6/3/1 3/4/1
f 5/1/1 7/2/1 8/3/1 6/4/1
f 7/1/1 9/2/1 10/3/1 8/4/1
f 9/1/1 11/2/1 12/3/1 10/4/1
f 11/5/1 13/6/1 14/7/1 12/8/1
f 13/1/1 15/2/1 16/3/1 14/4/1
f 15/1/1 17/2/1 18/3/1 16/4/1
f 17/1/1 19/2/1 20/3/1 18/4/1
f 19/1/1 21/2/1 22/3/1 20/4/1
f 21/1/1 23/2/1 24/3/1 22/4/1
f 23/5/1 25/6/1 26/7/1 24/8/1
f 25/1/1 27/2/1 28/3/1 26/4/1
f 27/5/1 29/6/1 30/7/1 28/8/1
f 29/1/1 31/2/1 32/3/1 30/4/1
f 31/1/1 33/2/1 34/3/1 32/4/1
f 33/5/1 35/6/1 36/7/1 34/8/1
f 35/1/1 37/2/1 38/3/1 36/4/1
f 37/1/1 39/2/1 40/3/1 38/4/1
f 41/1/1 42/2/1 2/3/1 1/4/1
f 42/5/1 43/6/1 5/7/1 2/8/1
f 43/1/1 44/2/1 7/3/1 5/4/1
f 44/1/1 45/2/1 9/3/1 7/4/1
f 45/1/1 46/2/1 11/3/1 9/4/1
f 46/1/1 47/2/1 13/3/1 11/4/1
f 47/1/1 48/2/1 15/3/1 13/4/1
f 48/5/1 49/6/1 17/7/1 15/8/1
f 49/5/1 50/6/1 19/7/1 17/8/1
f 50/1/1 51/2/1 21/3/1 19/4/1
f 51/1/1 52/2/1 23/3/1 21/4/1
f 52/1/1 53/2/1 25/3/1 23/4/1
f 53/1/1 54/2/1 27/3/1 25/4/1
f 54/1/1 55/2/1 29/3/1 27/4/1
f 55/1/1 56/2/1 31/3/1 29/4/1
f 56/5/1 57/6/1 33/7/1 31/8/1
f 57/1/1 58/2/1 35/3/1 33/4/1
f 58/1/1 59/2/1 37/3/1 35/4/1
f 59/1/1 60/2/1 39/3/1 37/4/1
f 61/1/1 62/2/1 42/3/1 41/4/1
f 62/1/1 63/2/1 43/3/1 42/4/1
f 63/5/1 64/6/1 44/7/1 43/8/1
f 64/1/1 65/2/1 45/3/1 44/4/1
f 65/1/1 66/2/1 46/3/1 45/4/1
f 66/5/1 67/6/1 47/7/1 46/8/1
f 67/1/1 68/2/1 48/3/1 47/4/1
f 68/1/1 69/2/1 49/3/1 48/4/1
f 69/1/1 70/2/1 50/3/1 49/4/1
f 70/1/1 71/2/1 51/3/1 50/4/1
f 71/5/1 72/6/1 52/7/1 51/8/1
f 72/1/1 73/2/1 53/3/1 52/4/1
f 73/1/1 74/2/1 54/3/1 53/4/1
f 74/5/1 75/6/1 55/7/1 54/8/1
f 75/1/1 76/2/1 56/3/1 55/4/1
f 76/1/1 77/2/1 57/3/1 56/4/1
f 77/5/1 78/6/1 58/7/1 57/8/1
f 78/1/1 79/2/1 59/3/1 58/4/1
f 79/5/1 80/6/1 60/7/1 59/8/1
f 81/9/1 82/10/1 83/11/1 84/12/1
f 82/9/1 85/10/1 86/11/1 83/12/1
f 85/9/1 87/10/1 88/11/1 86/12/1
f 87/9/1 89/10/1 90/11/1 88/12/1
f 89/9/1 91/10/1 92/11/1 90/12/1
f 91/13/1 93/14/1 94/15/1 92/16/1
f 95/17/1 96/18/1 97/19/1 98/20/1
f 96/9/1 99/10/1 100/11/1 97/12/1
f 99/9/1 101/10/1 102/11/1 100/12/1
f 101/9/1 103/10/1 104/11/1 102/12/1
f 103/9/1 105/10/1 106/11/1 104/12/1
f 105/9/1 107/10/1 108/11/1 106/12/1
f 107/9/1 109/10/1 110/11/1 108/12/1
f 109/21/1 111/22/1 112/23/1 110/24/1
f 113/1/1 114/2/1 82/3/1 81/4/1
f 114/5/1 115/6/1 85/7/1 82/8/1
f 115/1/1 116/2/1 87/3/1 85/4/1
f 116/1/1 117/2/1 89/3/1 87/4/1
f 117/5/1 118/6/1 91/7/1 89/8/1
f 118/25/1 119/26/1 93/27/1 91/28/1
f 120/29/1 121/30/1 96/31/1 95/32/1
f 121/1/1 122/2/1 99/3/1 96/4/1
f 122/1/1 123/2/1 101/3/1 99/4/1
f 123/1/1 124/2/1 103/3/1 101/4/1
f 124/1/1 125/2/1 105/3/1 103/4/1
f 125/1/1 126/2/1 107/3/1 105/4/1
f 126/1/1 127/2/1 109/3/1 107/4/1
f 127/1/1 128/2/1 111/3/1 109/4/1
f 129/1/1 130/2/1 114/3/1 113/4/1
f 130/5/1 131/6/1 115/7/1 114/8/1
f 131/1/1 132/2/1 116/3/1 115/4/1
f 132/1/1 133/2/1 117/3/1 116/4/1
f 133/5/1 134/6/1 118/7/1 117/8/1
f 134/25/1 135/26/1 119/27/1 118/28/1
f 136/29/1 137/30/1 121/31/1 120/32/1
f 137/1/1 138/2/1 122/3/1 121/4/1
f 138/1/1 139/2/1 123/3/1 122/4/1
f 139/5/1 140/6/1 124/7/1 123/8/1
f 140/1/1 141/2/1 125/3/1 124/4/1
f 141/1/1 142/2/1 126/3/1 125/4/1
f 142/1/1 143/2/1 127/3/1 126/4/1
f 143/1/1 144/2/1 128/3/1 127/4/1
f 145/1/1 146/2/1 130/3/1 129/4/1
f 146/5/1 147/6/1 131/7/1 130/8/1
f 147/1/1 148/2/1 132/3/1 131/4/1
f 148/1/1 149/2/1 133/3/1 132/4/1
f 149/5/1 150/6/1 134/7/1 133/8/1
f 150/25/1 151/26/1 135/27/1 134/28/1
f 152/29/1 153/30/1 137/31/1 136/32/1
f 153/1/1 154/2/1 138/3/1 137/4/1
f 154/1/1 155/2/1 139/3/1 138/4/1
f 155/5/1 156/6/1 140/7/1 139/8/1
f 156/1/1 157/2/1 141/3/1 140/4/1
f 157/1/1 158/2/1 142/3/1 141/4/1
f 158/1/1 159/2/1 143/3/1 142/4/1
f 159/1/1 160/2/1 144/3/1 143/4/1
f 161/1/1 162/2/1 146/3/1 145/4/1
f 162/5/1 163/6/1 147/7/1 146/8/1
f 163/1/1 164/2/1 148/3/1 147/4/1
f 164/1/1 165/2/1 149/3/1 148/4/1
f 165/5/1 166/6/1 150/7/1 149/8/1
f 166/25/1 167/26/1 151/27/1 150/28/1
f 168/29/1 169/30/1 153/31/1 152/32/1
f 169/1/1 170/2/1 154/3/1 153/4/1
f 170/5/1 171/6/1 155/7/1 154/8/1
f 171/1/1 172/2/1 156/3/1 155/4/1
f 172/1/1 173/2/1 157/3/1 156/4/1
f 173/1/1 174/2/1 158/3/1 157/4/1
f 174/1/1 175/2/1 159/3/1 158/4/1
f 175/1/1 176/2/1 160/3/1 159/4/1
f 177/1/1 178/2/1 162/3/1 161/4/1
f 178/5/1 179/6/1 163/7/1 162/8/1
f 179/1/1 180/2/1 164/3/1 163/4/1
f 180/1/1 181/2/1 165/3/1 164/4/1
f 181/5/1 182/6/1 166/7/1 165/8/1
f 182/25/1 183/26/1 167/27/1 166/28/1
f 184/29/1 185/30/1 169/31/1 168/32/1
f 185/1/1 186/2/1 170/3/1 169/4/1
f 186/5/1 187/6/1 171/7/1 170/8/1
f 187/1/1 188/2/1 172/3/1 171/4/1
f 188/1/1 189/2/1 173/3/1 172/4/1
f 189/1/1 190/2/1 174/3/1 173/4/1
f 190/1/1 191/2/1 175/3/1 174/4/1
f 191/1/1 192/2/1 176/3/1 175/4/1
f 193/1/1 194/2/1 178/3/1 177/4/1
f 194/5/1 195/6/1 179/7/1 178/8/1
f 195/1/1 196/2/1 180/3/1 179/4/1
f 196/1/1 197/2/1 181/3/1 180/4/1
f 197/5/1 198/6/1 182/7/1 181/8/1
f 198/25/1 199/26/1 183/27/1 182/28/1
f 200/29/1 201/30/1 185/31/1 184/32/1
f 201/1/1 202/2/1 186/3/1 185/4/1
f 202/5/1 203/6/1 187/7/1 186/8/1
f 203/1/1 204/2/1 188/3/1 187/4/1
f 204/1/1 205/2/1 189/3/1 188/4/1
f 205/1/1 206/2/1 190/3/1 189/4/1
f 206/1/1 207/2/1 191/3/1 190/4/1
f 207/1/1 208/2/1 192/3/1 191/4/1
f 209/1/1 210/2/1 194/3/1 193/4/1
f 210/5/1 211/6/1 195/7/1 194/8/1
f 211/1/1 212/2/1 196/3/1 195/4/1
f 212/1/1 213/2/1 197/3/1 196/4/1
f 213/5/1 214/6/1 198/7/1 197/8/1
f 214/25/1 215/26/1 199/27/1 198/28/1
f 216/29/1 217/30/1 201/31/1 200/32/1
f 217/1/1 218/2/1 202/3/1 201/4/1
f 218/1/1 219/2/1 203/3/1 202/4/1
f 219/1/1 220/2/1 204/3/1 203/4/1
f 220/1/1 221/2/1 205/3/1 204/4/1
f 221/1/1 222/2/1 206/3/1 205/4/1
f 222/1/1 223/2/1 207/3/1 206/4/1
f 223/1/1 224/2/1 208/3/1 207/4/1
f 225/1/1 226/2/1 210/3/1 209/4/1
f 226/5/1 227/6/1 211/7/1 210/8/1
f 227/1/1 228/2/1 212/3/1 211/4/1
f 228/1/1 229/2/1 213/3/1 212/4/1
f 229/5/1 230/6/1 214/7/1 213/8/1
f 230/25/1 231/26/1 215/27/1 214/28/1
f 232/29/1 233/30/1 217/31/1 216/32/1
f 233/1/1 234/2/1 218/3/1 217/4/1
f 234/5/1 235/6/1 219/7/1 218/8/1
f 235/1/1 236/2/1 220/3/1 219/4/1
f 236/1/1 237/2/1 221/3/1 220/4/1
f 237/1/1 238/2/1 222/3/1 221/4/1
f 238/1/1 239/2/1 223/3/1 222/4/1
f 239/1/1 240/2/1 224/3/1 223/4/1
f 241/5/1 242/6/1 226/7/1 225/8/1
f 242/1/1 243/2/1 227/3/1 226/4/1
f 243/1/1 244/2/1 228/3/1 227/4/1
f 244/5/1 245/6/1 229/7/1 228/8/1
f 245/5/1 246/6/1 230/7/1 229/8/1
f 246/25/1 247/26/1 231/27/1 230/28/1
f 248/29/1 249/30/1 233/31/1 232/32/1
f 249/1/1 250/2/1 234/3/1 233/4/1
f 250/5/1 251/6/1 235/7/1 234/8/1
f 251/1/1 252/2/1 236/3/1 235/4/1
f 252/1/1 253/2/1 237/3/1 236/4/1
f 253/1/1 254/2/1 238/3/1 237/4/1
f 254/1/1 255/2/1 239/3/1 238/4/1
f 255/1/1 256/2/1 240/3/1 239/4/1
f 257/5/1 258/6/1 242/7/1 241/8/1
f 258/1/1 259/2/1 243/3/1 242/4/1
f 259/1/1 260/2/1 244/3/1 243/4/1
f 260/1/1 261/2/1 245/3/1 244/4/1
f 261/1/1 262/2/1 246/3/1 245/4/1
f 262/25/1 263/26/1 247/27/1 246/28/1
f 264/29/1 265/30/1 249/31/1 248/32/1
f 265/1/1 266/2/1 250/3/1 249/4/1
f 266/5/1 267/6/1 251/7/1 250/8/1
f 267/1/1 268/2/1 252/3/1 251/4/1
f 268/1/1 269/2/1 253/3/1 252/4/1
f 269/1/1 270/2/1 254/3/1 253/4/1
f 270/1/1 271/2/1 255/3/1 254/4/1
f 271/1/1 272/2/1 256/3/1 255/4/1
f 273/5/1 274/6/1 258/7/1 257/8/1
f 274/1/1 275/2/1 259/3/1 258/4/1
f 275/1/1 276/2/1 260/3/1 259/4/1
f 276/1/1 277/2/1 261/3/1 260/4/1
f 277/1/1 278/2/1 262/3/1 261/4/1
f 278/25/1 279/26/1 263/27/1 262/28/1
f 280/29/1 281/30/1 265/31/1 264/32/1
f 281/1/1 282/2/1 266/3/1 265/4/1
f 282/1/1 283/2/1 267/3/1 266/4/1
f 283/1/1 284/2/1 268/3/1 267/4/1
f 284/1/1 285/2/1 269/3/1 268/4/1
f 285/1/1 286/2/1 270/3/1 269/4/1
f 286/1/1 287/2/1 271/3/1 270/4/1
f 287/1/1 288/2/1 272/3/1 271/4/1
f 289/5/1 290/6/1 274/7/1 273/8/1
f 290/1/1 291/2/1 275/3/1 274/4/1
f 291/5/1 292/6/1 276/7/1 275/8/1
f 292/1/1 293/2/1 277/3/1 276/4/1
f 293/1/1 294/2/1 278/3/1 277/4/1
f 294/25/1 295/26/1 279/27/1 278/28/1
f 296/29/1 297/30/1 281/31/1 280/32/1
f 297/1/1 298/2/1 282/3/1 281/4/1
f 298/1/1 299/2/1 283/3/1 282/4/1
f 299/1/1 300/2/1 284/3/1 283/4/1
f 300/5/1 301/6/1 285/7/1 284/8/1
f 301/1/1 302/2/1 286/3/1 285/4/1
f 302/1/1 303/2/1 287/3/1 286/4/1
f 303/1/1 304/2/1 288/3/1 287/4/1
f 305/1/1 306/2/1 290/3/1 289/4/1
f 306/1/1 307/2/1 291/3/1 290/4/1
f 307/5/1 308/6/1 292/7/1 291/8/1
f 308/1/1 309/2/1 293/3/1 292/4/1
f 309/1/1 310/2/1 294/3/1 293/4/1
f 310/25/1 311/26/1 295/27/1 294/28/1
f 312/29/1 313/30/1 297/31/1 296/32/1
f 313/1/1 314/2/1 298/3/1 297/4/1
f 314/1/1 315/2/1 299/3/1 298/4/1
f 315/1/1 316/2/1 300/3/1 299/4/1
f 316/5/1 317/6/1 301/7/1 300/8/1
f 317/1/1 318/2/1 302/3/1 301/4/1
f 318/1/1 319/2/1 303/3/1 302/4/1
f 319/1/1 320/2/1 304/3/1 303/4/1
f 321/1/1 322/2/1 306/3/1 305/4/1
f 322/1/1 323/2/1 307/3/1 306/4/1
f 323/5/1 324/6/1 308/7/1 307/8/1
f 324/1/1 325/2/1 309/3/1 308/4/1
f 325/1/1 326/2/1 310/3/1 309/4/1
f 326/25/1 327/26/1 311/27/1 310/28/1
f 328/29/1 329/30/1 313/31/1 312/32/1
f 329/1/1 330/2/1 314/3/1 313/4/1
f 330/1/1 331/2/1 315/3/1 314/4/1
f 331/1/1 332/2/1 316/3/1 315/4/1
f 332/5/1 333/6/1 317/7/1 316/8/1
f 333/1/1 334/2/1 318/3/1 317/4/1
f 334/1/1 335/2/1 319/3/1 318/4/1
f 335/1/1 336/2/1 320/3/1 319/4/1
f 337/1/1 338/2/1 322/3/1 321/4/1
f 338/1/1 339/2/1 323/3/1 322/4/1
f 339/1/1 340/2/1 324/3/1 323/4/1
f 340/1/1 341/2/1 325/3/1 324/4/1
f 341/1/1 342/2/1 326/3/1 325/4/1
f 342/25/1 343/26/1 327/27/1 326/28/1
f 344/29/1 345/30/1 329/31/1 328/32/1
f 345/1/1 346/2/1 330/3/1 329/4/1
f 346/5/1 347/6/1 331/7/1 330/8/1
f 347/1/1 348/2/1 332/3/1 331/4/1
f 348/1/1 349/2/1 333/3/1 332/4/1
f 349/1/1 350/2/1 334/3/1 333/4/1
f 350/1/1 351/2/1 335/3/1 334/4/1
f 351/1/1 352/2/1 336/3/1 335/4/1
f 353/1/1 354/2/1 338/3/1 337/4/1
f 354/1/1 355/2/1 339/3/1 338/4/1
f 355/1/1 356/2/1 340/3/1 339/4/1
f 356/1/1 357/2/1 341/3/1 340/4/1
f 357/1/1 358/2/1 342/3/1 341/4/1
f 358/25/1 359/26/1 343/27/1 342/28/1
f 360/29/1 361/30/1 345/31/1 344/32/1
f 361/1/1 362/2/1 346/3/1 345/4/1
f 362/5/1 363/6/1 347/7/1 346/8/1
f 363/1/1 364/2/1 348/3/1 347/4/1
f 364/1/1 365/2/1 349/3/1 348/4/1
f 365/1/1 366/2/1 350/3/1 349/4/1
f 366/1/1 367/2/1 351/3/1 350/4/1
f 367/1/1 368/2/1 352/3/1 351/4/1
f 369/1/1 370/2/1 354/3/1 353/4/1
f 370/1/1 371/2/1 355/3/1 354/4/1
f 371/1/1 372/2/1 356/3/1 355/4/1
f 372/1/1 373/2/1 357/3/1 356/4/1
f 373/1/1 374/2/1 358/3/1 357/4/1
f 374/25/1 375/26/1 359/27/1 358/28/1
f 376/29/1 377/30/1 361/31/1 360/32/1
f 377/1/1 378/2/1 362/3/1 361/4/1
f 378/5/1 379/6/1 363/7/1 362/8/1
f 379/1/1 380/2/1 364/3/1 363/4/1
f 380/5/1 381/6/1 365/7/1 364/8/1
f 381/1/1 382/2/1 366/3/1 365/4/1
f 382/1/1 383/2/1 367/3/1 366/4/1
f 383/1/1 384/2/1 368/3/1 367/4/1
f 385/1/1 386/2/1 370/3/1 369/4/1
f 386/1/1 387/2/1 371/3/1 370/4/1
f 387/5/1 388/6/1 372/7/1 371/8/1
f 388/1/1 389/2/1 373/3/1 372/4/1
f 389/1/1 390/2/1 374/3/1 373/4/1
f 390/25/1 391/26/1 375/27/1 374/28/1
f 392/29/1 393/30/1 377/31/1 376/32/1
f 393/1/1 394/2/1 378/3/1 377/4/1
f 394/1/1 395/2/1 379/3/1 378/4/1
f 395/1/1 396/2/1 380/3/1 379/4/1
f 396/5/1 397/6/1 381/7/1 380/8/1
f 397/1/1 398/2/1 382/3/1 381/4/1
f 398/1/1 399/2/1 383/3/1 382/4/1
f 399/1/1 400/2/1 384/3/1 383/4/1
f 401/1/1 402/2/1 386/3/1 385/4/1
f 402/1/1 403/2/1 387/3/1 386/4/1
f 403/5/1 404/6/1 388/7/1 387/8/1
f 404/1/1 405/2/1 389/3/1 388/4/1
f 405/1/1 406/2/1 390/3/1 389/4/1
f 406/25/1 407/26/1 391/27/1 390/28/1
f 408/29/1 409/30/1 393/31/1 392/32/1
f 409/1/1 410/2/1 394/3/1 393/4/1
f 410/1/1 411/2/1 395/3/1 394/4/1
f 411/1/1 412/2/1 396/3/1 395/4/1
f 412/5/1 413/6/1 397/7/1 396/8/1
f 413/1/1 414/2/1 398/3/1 397/4/1
f 414/1/1 415/2/1 399/3/1 398/4/1
f 415/1/1 416/2/1 400/3/1 399/4/1
f 417/1/1 418/2/1 402/3/1 401/4/1
f 418/1/1 419/2/1 403/3/1 402/4/1
f 419/5/1 420/6/1 404/7/1 403/8/1
f 420/1/1 421/2/1 405/3/1 404/4/1
f 421/1/1 422/2/1 406/3/1 405/4/1
f 422/33/1 423/34/1 407/35/1 406/36/1
f 423/9/1 424/10/1 425/11/1 407/12/1
f 424/9/1 426/10/1 427/11/1 425/12/1
f 426/9/1 428/10/1 429/11/1 427/12/1
f 428/9/1 430/10/1 431/11/1 429/12/1
f 430/9/1 432/10/1 408/11/1 431/12/1
f 432/37/1 433/38/1 409/39/1 408/40/1
f 433/1/1 434/2/1 410/3/1 409/4/1
f 434/5/1 435/6/1 411/7/1 410/8/1
f 435/1/1 436/2/1 412/3/1 411/4/1
f 436/1/1 437/2/1 413/3/1 412/4/1
f 437/1/1 438/2/1 414/3/1 413/4/1
f 438/1/1 439/2/1 415/3/1 414/4/1
f 439/1/1 440/2/1 416/3/1 415/4/1
f 441/1/1 442/2/1 418/3/1 417/4/1
f 442/1/1 443/2/1 419/3/1 418/4/1
f 443/1/1 444/2/1 420/3/1 419/4/1
f 444/1/1 445/2/1 421/3/1 420/4/1
f 445/1/1 446/2/1 422/3/1 421/4/1
f 446/1/1 447/2/1 423/3/1 422/4/1
f 447/1/1 448/2/1 424/3/1 423/4/1
f 448/5/1 449/6/1 426/7/1 424/8/1
f 449/1/1 450/2/1 428/3/1 426/4/1
f 450/1/1 451/2/1 430/3/1 428/4/1
f 451/1/1 452/2/1 432/3/1 430/4/1
f 452/1/1 453/2/1 433/3/1 432/4/1
f 453/1/1 454/2/1 434/3/1 433/4/1
f 454/5/1 455/6/1 435/7/1 434/8/1
f 455/1/1 456/2/1 436/3/1 435/4/1
f 456/1/1 457/2/1 437/3/1 436/4/1
f 457/1/1 458/2/1 438/3/1 437/4/1
f 458/1/1 459/2/1 439/3/1 438/4/1
f 459/1/1 460/2/1 440/3/1 439/4/1
f 461/1/1 462/2/1 442/3/1 441/4/1
f 462/1/1 463/2/1 443/3/1 442/4/1
f 463/1/1 464/2/1 444/3/1 443/4/1
f 464/1/1 465/2/1 445/3/1 444/4/1
f 465/1/1 466/2/1 446/3/1 445/4/1
f 466/1/1 467/2/1 447/3/1 446/4/1
f 467/1/1 468/2/1 448/3/1 447/4/1
f 468/5/1 469/6/1 449/7/1 448/8/1
f 469/1/1 470/2/1 450/3/1 449/4/1
f 470/1/1 471/2/1 451/3/1 450/4/1
f 471/1/1 472/2/1 452/3/1 451/4/1
f 472/1/1 473/2/1 453/3/1 452/4/1
f 473/1/1 474/2/1 454/3/1 453/4/1
f 474/5/1 475/6/1 455/7/1 454/8/1
f 475/1/1 476/2/1 456/3/1 455/4/1
f 476/1/1 477/2/1 457/3/1 456/4/1
f 477/1/1 478/2/1 458/3/1 457/4/1
f 478/1/1 479/2/1 459/3/1 458/4/1
f 479/1/1 480/2/1 460/3/1 459/4/1

