# Wavefront OBJ file automatically generated by Tiled2Unity

# Vertices (Count = 66)
v -192 -64 0
v -256 -64 0
v -256 0 0
v -192 0 0
v -320 -64 0
v -320 0 0
v -384 -64 0
v -384 0 0
v -448 -64 0
v -448 0 0
v -512 -64 0
v -512 0 0
v -192 -128 0
v -256 -128 0
v -320 -128 0
v -384 -128 0
v -448 -128 0
v -512 -128 0
v -192 -192 0
v -256 -192 0
v -320 -192 0
v -384 -192 0
v -448 -192 0
v -512 -192 0
v -192 -256 0
v -256 -256 0
v -320 -256 0
v -384 -256 0
v -448 -256 0
v -512 -256 0
v -192 -320 0
v -256 -320 0
v -320 -320 0
v -384 -320 0
v -448 -320 0
v -512 -320 0
v -192 -384 0
v -256 -384 0
v -320 -384 0
v -384 -384 0
v -448 -384 0
v -512 -384 0
v -192 -448 0
v -256 -448 0
v -320 -448 0
v -384 -448 0
v -448 -448 0
v -512 -448 0
v -192 -512 0
v -256 -512 0
v -320 -512 0
v -384 -512 0
v -448 -512 0
v -512 -512 0
v -192 -576 0
v -256 -576 0
v -320 -576 0
v -384 -576 0
v -448 -576 0
v -512 -576 0
v -192 -640 0
v -256 -640 0
v -320 -640 0
v -384 -640 0
v -448 -640 0
v -512 -640 0

# Texture cooridinates (Count = 16)
vt 3.051758E-05 0.2500305
vt 0.2499695 0.2500305
vt 0.2499695 0.4999695
vt 3.051758E-05 0.4999695
vt 0.2500305 0.2500305
vt 0.4999695 0.2500305
vt 0.4999695 0.4999695
vt 0.2500305 0.4999695
vt 0.7500305 0.2500305
vt 0.9999695 0.2500305
vt 0.9999695 0.4999695
vt 0.7500305 0.4999695
vt 0.5000305 0.2500305
vt 0.7499695 0.2500305
vt 0.7499695 0.4999695
vt 0.5000305 0.4999695

# Normal
vn 0 0 -1

# Groups (Count = 1)

g mesh_0001
f 1/1/1 2/2/1 3/3/1 4/4/1
f 2/5/1 5/6/1 6/7/1 3/8/1
f 5/5/1 7/6/1 8/7/1 6/8/1
f 7/5/1 9/6/1 10/7/1 8/8/1
f 9/9/1 11/10/1 12/11/1 10/12/1
f 13/1/1 14/2/1 2/3/1 1/4/1
f 14/5/1 15/6/1 5/7/1 2/8/1
f 15/13/1 16/14/1 7/15/1 5/16/1
f 16/5/1 17/6/1 9/7/1 7/8/1
f 17/9/1 18/10/1 11/11/1 9/12/1
f 19/1/1 20/2/1 14/3/1 13/4/1
f 20/13/1 21/14/1 15/15/1 14/16/1
f 21/5/1 22/6/1 16/7/1 15/8/1
f 22/5/1 23/6/1 17/7/1 16/8/1
f 23/9/1 24/10/1 18/11/1 17/12/1
f 25/1/1 26/2/1 20/3/1 19/4/1
f 26/5/1 27/6/1 21/7/1 20/8/1
f 27/5/1 28/6/1 22/7/1 21/8/1
f 28/5/1 29/6/1 23/7/1 22/8/1
f 29/9/1 30/10/1 24/11/1 23/12/1
f 31/1/1 32/2/1 26/3/1 25/4/1
f 32/5/1 33/6/1 27/7/1 26/8/1
f 33/5/1 34/6/1 28/7/1 27/8/1
f 34/5/1 35/6/1 29/7/1 28/8/1
f 35/9/1 36/10/1 30/11/1 29/12/1
f 37/1/1 38/2/1 32/3/1 31/4/1
f 38/5/1 39/6/1 33/7/1 32/8/1
f 39/13/1 40/14/1 34/15/1 33/16/1
f 40/5/1 41/6/1 35/7/1 34/8/1
f 41/9/1 42/10/1 36/11/1 35/12/1
f 43/1/1 44/2/1 38/3/1 37/4/1
f 44/5/1 45/6/1 39/7/1 38/8/1
f 45/13/1 46/14/1 40/15/1 39/16/1
f 46/5/1 47/6/1 41/7/1 40/8/1
f 47/9/1 48/10/1 42/11/1 41/12/1
f 49/1/1 50/2/1 44/3/1 43/4/1
f 50/13/1 51/14/1 45/15/1 44/16/1
f 51/5/1 52/6/1 46/7/1 45/8/1
f 52/5/1 53/6/1 47/7/1 46/8/1
f 53/9/1 54/10/1 48/11/1 47/12/1
f 55/1/1 56/2/1 50/3/1 49/4/1
f 56/5/1 57/6/1 51/7/1 50/8/1
f 57/5/1 58/6/1 52/7/1 51/8/1
f 58/13/1 59/14/1 53/15/1 52/16/1
f 59/9/1 60/10/1 54/11/1 53/12/1
f 61/1/1 62/2/1 56/3/1 55/4/1
f 62/13/1 63/14/1 57/15/1 56/16/1
f 63/13/1 64/14/1 58/15/1 57/16/1
f 64/13/1 65/14/1 59/15/1 58/16/1
f 65/9/1 66/10/1 60/11/1 59/12/1

